<svg xmlns="http://www.w3.org/2000/svg" width="21.077" height="21.624" viewBox="0 0 21.077 21.624">
    <defs>
        <style>.a{fill:#fff;}</style>
    </defs>
    <path class="a"
          d="M20.062,11.444l1.071,1.071a1.154,1.154,0,0,1,0,1.636l-9.378,9.382a1.154,1.154,0,0,1-1.636,0L.738,14.152a1.154,1.154,0,0,1,0-1.636l1.071-1.071a1.16,1.16,0,0,1,1.655.019l5.541,5.816V3.408A1.156,1.156,0,0,1,10.163,2.25h1.544a1.156,1.156,0,0,1,1.158,1.158V17.279l5.541-5.816a1.151,1.151,0,0,1,1.655-.019Z"
          transform="translate(-0.397 -2.25)"/>
</svg>